<svg xmlns="http://www.w3.org/2000/svg" viewBox="0 0 64 64">
  <rect width="64" height="64" rx="15" fill="#173b33"/>
  <path d="M16 37v-5a5 5 0 0 1 5-5h22a5 5 0 0 1 5 5v5M14 36a4 4 0 0 0-4 4v11h44V40a4 4 0 0 0-8 0v3H18v-3a4 4 0 0 0-4-4Zm1 15v4m34-4v4" fill="none" stroke="#fffdf9" stroke-width="4" stroke-linecap="round" stroke-linejoin="round"/>
  <circle cx="27" cy="21" r="3.5" fill="none" stroke="#f5d2b3" stroke-width="3"/>
  <circle cx="37" cy="21" r="3.5" fill="none" stroke="#f5d2b3" stroke-width="3"/>
  <path d="M51 9v9m-4.5-4.5h9" fill="none" stroke="#e7a56f" stroke-width="3" stroke-linecap="round"/>
</svg>
